<svg xmlns="http://www.w3.org/2000/svg" xmlns:xlink="http://www.w3.org/1999/xlink" fill="none" version="1.1" width="618" height="618" viewBox="0 0 618 618"><defs><clipPath id="master_svg0_110_0"><rect x="0" y="0" width="618" height="618" rx="309"/></clipPath><filter id="master_svg1_110_9" filterUnits="objectBoundingBox" color-interpolation-filters="sRGB" x="-1.5143081395544686" y="-1.5155747497062912" width="4.028616279108937" height="4.0311494994125825"><feFlood flood-opacity="0" result="BackgroundImageFix"/><feBlend mode="normal" in="SourceGraphic" in2="BackgroundImageFix" result="shape"/><feGaussianBlur stdDeviation="219.5" result="effect1_foregroundBlur"/></filter><filter id="master_svg2_110_8" filterUnits="objectBoundingBox" color-interpolation-filters="sRGB" x="-1.9543900319417458" y="-1.9782278964591196" width="4.9087800638834915" height="4.956455792918239"><feFlood flood-opacity="0" result="BackgroundImageFix"/><feBlend mode="normal" in="SourceGraphic" in2="BackgroundImageFix" result="shape"/><feGaussianBlur stdDeviation="219.5" result="effect1_foregroundBlur"/></filter><filter id="master_svg3_110_7" filterUnits="objectBoundingBox" color-interpolation-filters="sRGB" x="-1.2528961322194274" y="-1.292678565234512" width="3.505792264438855" height="3.585357130469024"><feFlood flood-opacity="0" result="BackgroundImageFix"/><feBlend mode="normal" in="SourceGraphic" in2="BackgroundImageFix" result="shape"/><feGaussianBlur stdDeviation="219.5" result="effect1_foregroundBlur"/></filter><clipPath id="bgblur_master_svg4_110_2_clip_path"><rect x="0" y="0" width="97.7699966430664" height="473.9700012207031"/></clipPath></defs><g clip-path="url(#master_svg0_110_0)"><rect x="0" y="0" width="618" height="618" rx="309" fill="#FFFFFF" fill-opacity="1"/><rect x="200.11929321289062" y="101.07965087890625" width="579.802734375" height="579.3181762695312" rx="113" fill="#FA5151" fill-opacity="1" transform="matrix(0.8987579345703125,0.43844521045684814,-0.43829718232154846,0.8988301157951355,64.56341674747273,-77.51512905431446)" filter="url(#master_svg1_110_9)"/><rect x="816" y="10.229705810546875" width="449.2450256347656" height="443.8315734863281" rx="113" fill="#FFC300" fill-opacity="1" transform="matrix(-0.5149591565132141,0.8572146892547607,-0.8571196794509888,-0.5151172876358032,1244.9747538799966,-683.9879823108968)" filter="url(#master_svg2_110_8)"/><rect x="540.688232421875" y="-198.79056549072266" width="700.7763671875" height="679.2098388671875" rx="113" fill="#FF8F1F" fill-opacity="1" transform="matrix(-0.08708290755748749,0.9961949586868286,-0.9961949586868286,-0.08722899109125137,389.7387766069287,-754.7617573169018)" filter="url(#master_svg3_110_7)"/><g transform="matrix(0,-1,1,0,-285.77001953125,429.77001953125)" style="opacity:0.5;"><foreignObject x="72" y="357.77001953125" width="97.7699966430664" height="473.9700012207031"><div xmlns="http://www.w3.org/1999/xhtml" style="backdrop-filter:blur(0px);-webkit-backdrop-filter:blur(0px);clip-path:url(#bgblur_master_svg4_110_2_clip_path);height:100%;width:100%"></div></foreignObject><rect x="151.199951171875" y="485.77001953125" width="157.97000122070312" height="60.20000076293945" rx="30" fill="#FFFFFF" fill-opacity="1" transform="matrix(0,1,-1,0,636.969970703125,334.570068359375)"/><rect x="151.199951171875" y="673.77001953125" width="157.97000122070312" height="60.20000076293945" rx="30" fill="#FFFFFF" fill-opacity="1" transform="matrix(0,1,-1,0,824.969970703125,522.570068359375)"/><ellipse cx="120.8849983215332" cy="406.6550178527832" rx="48.8849983215332" ry="48.8849983215332" fill="#FFFFFF" fill-opacity="1"/></g></g></svg>